<?xml version="1.0" standalone="no"?>
<!DOCTYPE svg PUBLIC "-//W3C//DTD SVG 20010904//EN"
 "http://www.w3.org/TR/2001/REC-SVG-20010904/DTD/svg10.dtd">
<svg version="1.0" xmlns="http://www.w3.org/2000/svg"
 width="477.000000pt" height="374.000000pt" viewBox="0 0 477.000000 374.000000"
 preserveAspectRatio="xMidYMid meet">

<g transform="translate(0.000000,374.000000) scale(0.100000,-0.100000)"
fill="#000000" stroke="none">
<path d="M1766 3301 c-4 -5 -28 -10 -54 -11 -43 0 -127 -7 -127 -10 0 -1 -16
-3 -35 -5 -19 -2 -49 -6 -67 -9 -18 -4 -69 -9 -114 -11 -45 -3 -89 -10 -99
-15 -10 -5 -19 -7 -22 -5 -2 2 -22 -2 -43 -10 -22 -8 -55 -14 -73 -15 -18 0
-57 -9 -87 -19 -29 -10 -56 -16 -59 -13 -3 3 -6 0 -6 -5 0 -6 -8 -10 -17 -9
-10 2 -33 -3 -51 -11 -18 -7 -37 -11 -42 -8 -6 4 -10 -1 -10 -9 0 -10 -6 -13
-15 -10 -8 4 -15 1 -15 -5 0 -6 -9 -11 -20 -11 -11 0 -20 -5 -20 -11 0 -6 -7
-9 -15 -5 -8 3 -15 2 -15 -2 0 -4 -10 -9 -22 -9 -13 -1 -24 -7 -26 -13 -2 -5
-8 -8 -13 -4 -5 3 -9 0 -9 -7 0 -7 -10 -9 -25 -7 -17 4 -25 1 -25 -8 0 -8 -7
-14 -15 -14 -9 0 -20 -11 -25 -25 -5 -14 -12 -25 -15 -25 -4 0 -3 5 0 10 16
25 -26 6 -45 -21 -12 -16 -24 -28 -27 -25 -8 8 -83 -33 -83 -44 0 -6 -3 -9 -8
-8 -4 1 -20 -4 -35 -10 -15 -7 -31 -11 -35 -11 -17 3 -35 -2 -29 -7 12 -12
-23 -35 -50 -32 -24 3 -28 0 -25 -19 4 -25 -22 -33 -32 -10 -3 6 -4 0 -2 -16
3 -22 1 -25 -10 -16 -10 8 -17 7 -29 -4 -11 -12 -12 -17 -2 -20 7 -3 4 -6 -6
-6 -11 -1 -15 -5 -11 -13 5 -7 2 -9 -8 -5 -11 4 -18 -2 -22 -19 -4 -14 -11
-22 -16 -19 -6 3 -10 -1 -10 -10 0 -9 -5 -13 -10 -10 -6 3 -10 -3 -10 -13 0
-11 -7 -22 -15 -26 -8 -3 -15 -12 -15 -21 0 -8 -3 -14 -8 -13 -4 0 -15 -2 -24
-6 -16 -7 -17 -63 -18 -832 0 -658 2 -824 12 -824 9 0 8 -3 -2 -10 -12 -7 -10
-11 10 -19 14 -5 19 -10 13 -10 -15 -1 -18 -41 -3 -41 6 0 10 5 10 10 0 6 8
10 18 9 11 0 12 -2 4 -6 -9 -4 -10 -9 -2 -18 8 -9 6 -14 -5 -19 -21 -8 -19
-25 3 -22 22 4 24 54 3 80 -9 11 -10 16 -3 12 7 -4 12 -2 12 5 0 8 4 8 15 -1
9 -7 13 -15 11 -18 -3 -2 -1 -14 5 -25 7 -13 7 -17 1 -13 -6 3 -4 -7 4 -24 16
-31 28 -42 18 -15 -3 8 -3 19 1 26 10 16 25 -9 25 -42 0 -15 6 -26 14 -26 9 0
13 8 10 23 -2 13 0 26 6 29 10 6 15 -13 12 -49 -2 -13 2 -16 14 -12 10 4 22
-1 30 -11 13 -17 14 -17 7 2 -6 17 -5 18 10 7 8 -8 13 -21 10 -30 -4 -14 -3
-15 5 -2 6 8 8 18 6 22 -3 4 0 8 5 8 6 0 11 -6 11 -12 0 -23 16 -39 33 -32 12
4 15 13 11 29 -5 20 -3 23 15 18 15 -4 18 -9 12 -17 -6 -7 -5 -18 4 -29 9 -12
14 -14 17 -6 6 18 48 19 48 1 0 -11 3 -12 14 -3 12 10 14 9 10 -6 -8 -28 27
-56 57 -46 21 8 44 9 86 4 7 0 10 -8 6 -18 -6 -17 -5 -17 13 -1 11 9 30 16 42
15 20 -1 21 -3 8 -13 -9 -6 -16 -15 -16 -19 0 -4 6 -3 13 2 11 9 61 -7 54 -18
-1 -2 3 2 9 9 9 10 18 6 45 -20 18 -18 30 -28 26 -22 -4 8 5 13 28 16 22 2 36
-1 39 -9 3 -7 10 -13 16 -13 6 0 8 5 4 11 -4 7 -1 10 7 7 8 -3 13 -13 11 -22
-2 -13 4 -16 32 -13 20 2 33 0 30 -4 -3 -5 2 -9 10 -9 9 0 16 4 16 9 0 14 43
0 57 -18 7 -9 13 -12 13 -8 0 4 10 2 23 -4 21 -12 50 -18 109 -22 14 -1 24 -5
22 -8 -5 -8 21 -19 46 -19 10 0 21 -6 23 -12 3 -7 6 -8 6 -3 1 11 26 11 121 0
30 -4 61 -7 68 -7 6 -1 12 -5 12 -9 0 -7 69 -11 139 -10 12 1 28 -2 34 -6 6
-4 31 -8 56 -9 40 -3 113 -11 161 -18 9 -1 21 -5 27 -9 6 -4 14 -3 17 2 8 13
76 5 119 -14 9 -4 27 -5 38 -2 11 3 32 2 47 -3 15 -5 56 -12 92 -15 36 -4 83
-9 105 -11 22 -2 63 -6 90 -9 28 -3 75 -8 105 -11 30 -3 63 -6 73 -7 9 -1 17
-5 17 -10 0 -5 6 -5 13 1 6 6 23 10 37 10 14 0 41 0 60 1 19 0 45 1 56 1 12 0
35 5 50 11 16 7 38 14 49 15 11 2 36 7 55 11 19 3 41 5 49 4 7 -1 31 5 52 13
21 9 39 13 39 10 0 -4 6 -2 13 3 6 5 30 9 52 8 22 -1 45 1 50 4 13 7 44 13 78
15 15 0 27 4 27 7 0 8 78 23 103 20 9 -1 17 2 17 8 0 6 7 8 15 5 8 -3 36 1 62
9 26 8 57 15 68 15 11 0 34 4 50 7 17 4 42 9 58 12 15 3 27 9 27 14 0 5 6 6
14 3 7 -3 39 1 69 9 31 8 58 12 61 9 3 -2 11 0 18 5 7 6 31 9 53 8 22 -2 42 1
45 5 3 5 37 10 75 11 39 2 78 6 87 11 9 4 34 10 55 12 21 2 49 7 63 10 24 5
107 15 180 21 19 2 35 4 35 5 0 2 85 11 120 13 17 1 36 6 44 11 10 7 12 6 6
-4 -6 -10 -4 -12 11 -6 10 4 42 10 69 12 28 3 56 7 63 9 9 3 12 181 12 843 0
461 -3 842 -6 845 -4 3 -16 1 -27 -5 -17 -9 -24 -7 -39 12 -10 12 -18 19 -18
14 0 -4 -5 -3 -11 3 -6 6 -18 9 -27 6 -11 -5 -13 -3 -7 8 7 11 6 12 -6 3 -16
-13 -76 -10 -123 6 -17 5 -51 13 -76 16 -25 3 -53 11 -63 16 -10 5 -41 11 -70
13 -65 4 -107 14 -107 27 0 5 -4 7 -9 4 -4 -3 -16 3 -26 14 -9 10 -23 16 -31
13 -7 -3 -26 4 -42 16 -22 15 -32 17 -40 9 -9 -9 -12 -6 -12 12 0 13 -8 33
-17 44 -17 20 -17 20 0 7 15 -12 17 -11 17 7 0 19 -25 38 -45 33 -5 -1 -4 3 3
11 11 11 15 10 23 -2 9 -13 10 -13 5 0 -3 8 -9 22 -12 31 -3 9 -16 22 -29 29
-15 8 -21 18 -18 28 4 8 2 13 -3 10 -5 -4 -18 1 -29 9 -19 15 -19 15 5 10 24
-6 24 -5 6 8 -11 8 -21 22 -22 32 -3 20 -28 37 -33 22 -2 -6 -11 -3 -22 7 -10
9 -19 14 -19 10 0 -4 -10 0 -22 8 -12 9 -30 16 -40 16 -10 0 -18 4 -18 9 0 6
-9 8 -20 6 -11 -2 -18 0 -15 6 6 9 -6 12 -41 10 -12 -1 -28 4 -35 11 -8 7 -20
14 -27 16 -7 1 -23 4 -35 6 -12 3 -24 5 -27 6 -3 1 -9 3 -15 5 -5 1 -13 3 -17
5 -10 3 -14 4 -60 13 -21 5 -38 11 -38 15 0 4 -15 8 -33 9 -34 3 -71 18 -99
41 -9 7 -28 15 -43 17 -15 1 -30 6 -34 11 -6 8 -13 11 -51 19 -8 2 -15 4 -15
5 0 2 -114 29 -145 34 -14 2 -45 7 -70 11 -24 3 -47 9 -50 13 -3 4 -25 8 -50
10 -24 2 -47 7 -50 11 -3 5 -13 7 -23 5 -10 -1 -21 4 -24 11 -3 9 -16 13 -34
11 -16 -2 -32 0 -35 5 -3 5 -16 9 -30 9 -14 0 -34 4 -44 10 -10 5 -38 12 -62
15 -23 2 -52 6 -63 9 -11 2 -40 7 -65 11 -65 11 -70 12 -141 28 -125 30 -255
49 -354 52 -55 2 -110 6 -121 10 -12 4 -25 2 -28 -4z m2161 -633 c-3 -8 -6 -5
-6 6 -1 11 2 17 5 13 3 -3 4 -12 1 -19z m-3757 -1833 c0 -8 -4 -15 -10 -15 -5
0 -7 7 -4 15 4 8 8 15 10 15 2 0 4 -7 4 -15z m107 -11 c-3 -3 -11 -6 -19 -8
-7 -1 -20 -6 -28 -11 -12 -7 -13 -6 -3 6 6 8 22 15 34 16 11 1 19 0 16 -3z
m430 -189 c0 -8 -4 -12 -9 -9 -5 3 -6 10 -3 15 9 13 12 11 12 -6z"/>
<path d="M55 2650 c3 -5 8 -10 11 -10 2 0 4 5 4 10 0 6 -5 10 -11 10 -5 0 -7
-4 -4 -10z"/>
</g>
</svg>
